<svg version="1.1" xmlns="http://www.w3.org/2000/svg" xmlns:xlink="http://www.w3.org/1999/xlink" width="20px" height="20px" viewBox="0 0 512 512">
<style type="text/css">

	.st0{fill:#04A040;}

</style>
<g>
	<path class="st0" d="M362.625,190.484V56.172H149.344v134.313L0,190.797v265.031h210.969v-96.375h90.047v96.375H512V190.797
		L362.625,190.484z M105.188,404.484h-39.75V360.75h39.75V404.484z M105.188,292.563h-39.75v-43.75h39.75V292.563z M275.875,292.563
		h-39.766v-43.75h39.766V292.563z M256,180.719c-27.313,0-49.531-22.234-49.531-49.547c0-27.297,22.219-49.516,49.531-49.516
		s49.531,22.219,49.531,49.516C305.531,158.484,283.313,180.719,256,180.719z M446.563,404.484h-39.781V360.75h39.781V404.484z
		 M446.563,292.563h-39.781v-43.75h39.781V292.563z" style="fill: rgb(4, 160, 64);"></path>
	<path class="st0" d="M256,92.969c-21.078,0-38.219,17.141-38.219,38.203c0,21.078,17.141,38.219,38.219,38.219
		c21.063,0,38.219-17.141,38.219-38.219C294.219,110.109,277.063,92.969,256,92.969z M263.594,133.625
		c0,2.734-1.781,5.016-4.188,5.891c-1.031,0.672-2.281,1.094-3.625,1.094h-19.594c-3.641,0-6.594-2.953-6.594-6.578
		c0-3.641,2.953-6.594,6.594-6.594h14.844v-20.797c0-3.453,2.813-6.266,6.281-6.266s6.281,2.813,6.281,6.266V133.625z" style="fill: rgb(4, 160, 64);"></path>
</g>
</svg>
