<svg version="1.1" id="_x32_" xmlns="http://www.w3.org/2000/svg" xmlns:xlink="http://www.w3.org/1999/xlink" width="301px" height="194px" viewBox="0 0 512 512">
<style type="text/css">
	.st0{fill:#04A040;}
</style>
<g>
	<path class="st0" d="M484.058,430.039v-58.42h-71.14h-71.122v58.42l-27.95,12.711v20.317h99.072H512V442.75L484.058,430.039z
		 M458.646,430.039h-45.728h-45.719v-22.864h45.719h45.728V430.039z" style="fill: rgb(4, 160, 64);"></path>
	<rect x="322.966" y="473.23" class="st0" width="22.864" height="38.104" style="fill: rgb(4, 160, 64);"></rect>
	<rect x="480.014" y="473.23" class="st0" width="22.864" height="38.104" style="fill: rgb(4, 160, 64);"></rect>
	<rect x="442.056" y="473.23" class="st0" width="22.874" height="20.943" style="fill: rgb(4, 160, 64);"></rect>
	<rect x="360.915" y="473.23" class="st0" width="22.865" height="20.943" style="fill: rgb(4, 160, 64);"></rect>
	<path class="st0" d="M354.459,327.146c37.371-14.16,63.989-50.178,63.989-92.51c0-26.84-10.722-51.143-28.066-68.969
		c0.628-4.69,1.072-9.42,1.072-14.274c0-54-40.527-98.474-92.808-104.864C272.364,18.377,235.032,0.666,193.473,0.666
		c-79.518,0-143.981,64.461-143.981,143.98c0,0.425,0.058,0.83,0.058,1.245C19.66,166.111,0,200.325,0,239.134
		c0,53.209,36.984,97.682,86.621,109.38c10.067,24.62,34.215,41.993,62.465,41.993c10.529,0,20.451-2.481,29.33-6.776v127.602
		h77.327v-83.775l30.161-51.52C316.77,373.791,342.848,354.333,354.459,327.146z M213.828,341.999
		c0.647,0.926,1.342,1.824,2.037,2.722l-3.426,1.39C212.93,344.749,213.412,343.389,213.828,341.999z M238.024,405.014v-40.47
		c7.162,4.344,15.037,7.625,23.434,9.585L238.024,405.014z" style="fill: rgb(4, 160, 64);"></path>
</g>
</svg>
