<svg version="1.1" xmlns="http://www.w3.org/2000/svg" xmlns:xlink="http://www.w3.org/1999/xlink" width="20px" height="20px" viewBox="0 0 512 512">
<style type="text/css">
	.st0{fill:#04A040;}
</style>
<g>
	<path class="st0" d="M257.661,85.061c22.717,0,41.107-18.399,41.107-41.087c0-22.698-18.39-41.088-41.107-41.088
		c-22.688,0-41.067,18.39-41.067,41.088C216.594,66.662,234.974,85.061,257.661,85.061z" style="fill: rgb(4, 160, 64);"></path>
	<path class="st0" d="M258.503,178.277h55.545c0,0,13.3-28.867-1.376-54.466c-8.308-14.457-27.778-23.272-54.169-23.272
		c-26.421,0-45.861,8.814-54.179,23.272c-14.706,25.599-1.366,54.466-1.366,54.466H258.503z" style="fill: rgb(4, 160, 64);"></path>
	<path class="st0" d="M60.246,381.495c22.727,0,41.107-18.38,41.107-41.088c0-22.698-18.38-41.078-41.107-41.078
		c-22.717,0-41.097,18.38-41.097,41.078C19.15,363.116,37.53,381.495,60.246,381.495z" style="fill: rgb(4, 160, 64);"></path>
	<path class="st0" d="M61.088,396.983c-26.43,0-45.87,8.813-54.188,23.242c-14.696,25.628-1.347,54.485-1.347,54.485h55.535h55.526
		c0,0,13.339-28.857-1.357-54.485C106.949,405.796,87.489,396.983,61.088,396.983z" style="fill: rgb(4, 160, 64);"></path>
	<path class="st0" d="M408.988,340.408c0,22.708,18.409,41.088,41.097,41.088c22.717,0,41.107-18.38,41.107-41.088
		c0-22.698-18.39-41.078-41.107-41.078C427.397,299.33,408.988,317.71,408.988,340.408z" style="fill: rgb(4, 160, 64);"></path>
	<path class="st0" d="M505.085,420.225c-8.298-14.429-27.748-23.242-54.159-23.242c-26.421,0-45.88,8.813-54.179,23.242
		c-14.696,25.628-1.357,54.485-1.357,54.485h55.536h55.526C506.452,474.71,519.801,445.854,505.085,420.225z" style="fill: rgb(4, 160, 64);"></path>
	<path class="st0" d="M195.698,430.752l-7.685,37.72c38.84,10.834,76.53,6.893,76.53,6.893l-3.149,33.749l65.082-77.638
		C256.294,446.646,195.698,430.752,195.698,430.752z" style="fill: rgb(4, 160, 64);"></path>
	<path class="st0" d="M461.196,242.468c-10.041-39.058-32.313-69.727-32.313-69.727l30.808-14.141l-99.782-17.548
		c48.237,53.188,64.765,113.616,64.765,113.616L461.196,242.468z" style="fill: rgb(4, 160, 64);"></path>
	<path class="st0" d="M81.944,187.309l-27.649-19.608l34.7,95.177c21.944-68.36,66.013-112.883,66.013-112.883l-28.828-25.52
		C97.363,152.688,81.944,187.309,81.944,187.309z" style="fill: rgb(4, 160, 64);"></path>
</g>
</svg>
